<?xml version="1.0" encoding="UTF-8"?>
<svg xmlns="http://www.w3.org/2000/svg" width="2in" height="2in" viewBox="0 0 1254 1254">
<title>haley-wali-round-sticker-2in-vector</title>
<defs><radialGradient id="blushGradient" cx="50%" cy="48%" r="72%"><stop offset="0%" stop-color="#F9D9DC"/><stop offset="100%" stop-color="#F3C6CD"/></radialGradient></defs><g id="Sticker Background"><circle cx="627" cy="627" r="627" fill="url(#blushGradient)"/></g>
<g id="Outlined Artwork" fill="#5C3130"><path d="M 256 949 L 260 947 L 260 906 L 258 906 L 257 903 L 259 903 L 259 904 L 270 903 L 270 905 L 267 906 L 267 925 L 292 925 L 292 906 L 290 906 L 289 903 L 302 903 L 302 905 L 299 906 L 299 947 L 302 949 L 302 951 L 300 951 L 300 950 L 290 950 L 289 951 L 288 950 L 289 948 L 292 947 L 292 927 L 267 927 L 267 947 L 270 948 L 270 951 L 269 950 L 256 950 Z M 324 749 L 325 749 L 325 740 L 326 740 L 326 734 L 327 734 L 328 723 L 329 723 L 331 708 L 332 708 L 332 704 L 333 704 L 333 699 L 334 699 L 340 671 L 342 668 L 343 660 L 345 657 L 346 649 L 347 649 L 350 635 L 352 632 L 352 628 L 353 628 L 353 625 L 354 625 L 354 622 L 356 619 L 356 615 L 357 615 L 357 612 L 358 612 L 358 609 L 360 606 L 360 602 L 361 602 L 361 599 L 362 599 L 362 596 L 363 596 L 363 593 L 365 590 L 365 586 L 366 586 L 366 583 L 367 583 L 367 580 L 368 580 L 368 577 L 369 577 L 369 574 L 370 574 L 370 571 L 371 571 L 371 568 L 372 568 L 379 544 L 381 542 L 384 530 L 386 528 L 388 519 L 390 517 L 390 514 L 392 512 L 393 506 L 395 504 L 395 501 L 397 499 L 397 496 L 399 494 L 401 486 L 404 482 L 406 474 L 407 474 L 409 467 L 412 463 L 412 460 L 417 452 L 417 449 L 418 449 L 418 447 L 423 439 L 423 436 L 424 436 L 424 434 L 425 434 L 425 432 L 426 432 L 426 430 L 427 430 L 427 428 L 428 428 L 443 396 L 445 395 L 449 385 L 451 384 L 458 369 L 460 368 L 460 366 L 463 363 L 464 359 L 466 358 L 467 354 L 471 350 L 472 346 L 474 345 L 474 343 L 476 342 L 476 340 L 478 339 L 478 337 L 480 336 L 480 334 L 482 333 L 482 331 L 484 330 L 486 325 L 489 323 L 489 321 L 494 316 L 494 314 L 498 311 L 498 309 L 501 307 L 501 305 L 506 301 L 506 299 L 512 294 L 512 292 L 529 275 L 531 275 L 534 271 L 536 271 L 538 268 L 545 265 L 546 263 L 553 261 L 555 259 L 558 259 L 558 258 L 562 258 L 562 257 L 579 257 L 579 258 L 582 258 L 582 259 L 588 261 L 593 266 L 593 268 L 596 272 L 596 275 L 597 275 L 596 299 L 595 299 L 595 303 L 594 303 L 593 309 L 591 311 L 591 314 L 590 314 L 585 326 L 583 327 L 580 335 L 578 336 L 578 338 L 580 338 L 580 337 L 593 337 L 593 338 L 597 339 L 598 341 L 600 341 L 606 350 L 601 352 L 601 353 L 598 353 L 598 354 L 588 354 L 588 353 L 585 353 L 582 350 L 580 350 L 576 346 L 576 344 L 574 343 L 573 346 L 571 347 L 570 351 L 568 352 L 568 354 L 565 356 L 565 358 L 563 359 L 563 361 L 559 365 L 559 367 L 556 369 L 556 371 L 553 373 L 553 375 L 550 377 L 550 379 L 547 381 L 547 383 L 543 386 L 543 388 L 539 391 L 539 393 L 535 396 L 535 398 L 531 401 L 531 403 L 528 405 L 528 407 L 523 411 L 523 413 L 518 417 L 518 419 L 514 422 L 514 424 L 508 429 L 508 431 L 502 436 L 502 438 L 496 443 L 496 445 L 490 450 L 490 452 L 484 457 L 484 459 L 477 465 L 477 467 L 469 474 L 469 476 L 463 481 L 463 483 L 457 488 L 457 490 L 448 499 L 447 504 L 446 504 L 444 511 L 442 513 L 442 516 L 441 516 L 439 523 L 437 525 L 437 528 L 435 530 L 435 533 L 433 535 L 433 538 L 431 540 L 431 543 L 429 545 L 429 548 L 427 550 L 427 553 L 426 553 L 426 556 L 424 558 L 419 575 L 417 577 L 417 580 L 416 580 L 413 592 L 411 594 L 411 597 L 410 597 L 410 600 L 409 600 L 409 603 L 408 603 L 408 606 L 407 606 L 407 609 L 406 609 L 406 612 L 405 612 L 405 615 L 404 615 L 404 618 L 402 621 L 402 625 L 401 625 L 401 628 L 400 628 L 400 631 L 399 631 L 399 634 L 397 637 L 397 641 L 395 644 L 393 655 L 392 655 L 392 657 L 393 657 L 393 655 L 395 654 L 395 652 L 397 651 L 397 649 L 399 648 L 399 646 L 401 645 L 401 643 L 403 642 L 403 640 L 405 639 L 405 637 L 407 636 L 407 634 L 409 633 L 411 628 L 414 626 L 414 624 L 417 622 L 417 620 L 420 618 L 420 616 L 426 610 L 426 608 L 430 605 L 430 603 L 435 599 L 435 597 L 442 591 L 442 589 L 462 569 L 464 569 L 469 563 L 471 563 L 473 560 L 475 560 L 476 558 L 478 558 L 482 554 L 484 554 L 492 549 L 499 548 L 499 547 L 515 547 L 515 548 L 518 548 L 518 549 L 524 551 L 527 555 L 529 555 L 530 558 L 533 560 L 533 562 L 536 565 L 536 568 L 537 568 L 538 573 L 539 573 L 539 578 L 540 578 L 540 596 L 539 596 L 539 601 L 538 601 L 536 613 L 534 615 L 531 626 L 527 632 L 527 635 L 526 635 L 520 649 L 518 650 L 512 664 L 510 665 L 510 667 L 509 667 L 506 675 L 504 676 L 499 688 L 497 689 L 497 691 L 496 691 L 489 707 L 487 708 L 487 710 L 486 710 L 486 712 L 485 712 L 485 714 L 484 714 L 484 716 L 483 716 L 483 718 L 482 718 L 482 720 L 481 720 L 481 722 L 480 722 L 480 724 L 479 724 L 479 726 L 474 734 L 474 737 L 469 745 L 469 748 L 466 752 L 466 755 L 465 755 L 464 760 L 462 762 L 462 765 L 460 767 L 460 770 L 459 770 L 459 773 L 457 775 L 456 782 L 455 782 L 455 785 L 453 788 L 452 798 L 451 798 L 451 803 L 453 806 L 459 806 L 459 805 L 465 803 L 467 800 L 469 800 L 473 795 L 475 795 L 487 783 L 487 781 L 493 776 L 493 774 L 501 766 L 503 761 L 506 759 L 506 757 L 508 756 L 508 754 L 512 750 L 513 746 L 515 745 L 516 741 L 520 737 L 521 733 L 523 732 L 524 728 L 526 727 L 527 723 L 529 722 L 529 720 L 532 717 L 533 713 L 535 712 L 536 708 L 540 704 L 541 700 L 543 699 L 543 697 L 545 696 L 545 694 L 547 693 L 547 691 L 549 690 L 549 688 L 551 687 L 553 682 L 556 680 L 556 678 L 561 673 L 561 671 L 558 669 L 558 667 L 555 664 L 553 653 L 554 653 L 554 649 L 555 649 L 556 644 L 563 636 L 565 636 L 565 638 L 568 642 L 568 645 L 569 645 L 569 650 L 570 650 L 569 659 L 567 661 L 566 666 L 563 669 L 564 670 L 575 657 L 577 657 L 581 652 L 583 652 L 585 649 L 587 649 L 591 645 L 595 644 L 596 642 L 603 640 L 603 639 L 610 637 L 610 636 L 623 634 L 623 633 L 630 633 L 630 630 L 629 630 L 630 616 L 631 616 L 632 612 L 642 604 L 648 603 L 648 616 L 647 616 L 647 619 L 646 619 L 645 623 L 643 624 L 643 626 L 640 629 L 638 629 L 637 631 L 635 631 L 634 633 L 635 632 L 657 631 L 657 630 L 662 630 L 662 629 L 668 628 L 668 627 L 674 625 L 675 623 L 677 623 L 679 620 L 681 620 L 689 612 L 689 610 L 693 607 L 693 605 L 696 603 L 696 601 L 698 599 L 700 590 L 702 588 L 702 585 L 703 585 L 703 582 L 704 582 L 704 579 L 705 579 L 705 576 L 706 576 L 706 573 L 707 573 L 707 570 L 708 570 L 708 567 L 709 567 L 709 564 L 710 564 L 710 561 L 711 561 L 711 558 L 712 558 L 712 555 L 713 555 L 713 552 L 714 552 L 714 549 L 715 549 L 715 546 L 717 543 L 717 539 L 719 536 L 719 532 L 721 529 L 721 525 L 722 525 L 722 521 L 723 521 L 723 517 L 724 517 L 724 512 L 725 512 L 725 508 L 726 508 L 727 487 L 726 487 L 725 482 L 721 479 L 712 481 L 711 483 L 709 483 L 707 486 L 705 486 L 700 491 L 700 493 L 695 497 L 695 499 L 693 500 L 693 502 L 689 506 L 689 508 L 684 516 L 684 519 L 682 521 L 682 524 L 681 524 L 681 527 L 679 530 L 679 534 L 677 537 L 676 549 L 675 549 L 675 568 L 672 568 L 672 562 L 671 562 L 673 538 L 674 538 L 674 534 L 675 534 L 675 530 L 676 530 L 676 526 L 677 526 L 679 517 L 680 517 L 680 515 L 683 511 L 683 508 L 686 505 L 688 499 L 692 495 L 692 493 L 709 476 L 711 476 L 717 472 L 724 471 L 724 470 L 739 471 L 739 472 L 745 474 L 754 484 L 755 489 L 757 491 L 758 500 L 759 500 L 759 523 L 758 523 L 758 530 L 757 530 L 757 535 L 756 535 L 756 540 L 755 540 L 754 548 L 752 551 L 752 555 L 751 555 L 751 558 L 750 558 L 750 561 L 749 561 L 749 564 L 748 564 L 748 567 L 747 567 L 747 570 L 746 570 L 746 573 L 744 576 L 744 580 L 742 582 L 736 603 L 734 605 L 732 614 L 730 616 L 727 628 L 725 630 L 725 633 L 724 633 L 724 636 L 722 638 L 720 647 L 718 649 L 716 658 L 714 660 L 707 684 L 705 686 L 704 693 L 703 693 L 703 696 L 701 699 L 701 703 L 699 706 L 699 710 L 697 713 L 697 717 L 696 717 L 696 721 L 695 721 L 695 725 L 694 725 L 694 729 L 693 729 L 692 734 L 693 734 L 693 732 L 694 732 L 694 730 L 695 730 L 695 728 L 700 720 L 700 717 L 701 717 L 701 715 L 702 715 L 702 713 L 703 713 L 703 711 L 704 711 L 704 709 L 705 709 L 705 707 L 710 699 L 710 696 L 715 688 L 715 685 L 716 685 L 716 683 L 717 683 L 717 681 L 718 681 L 718 679 L 719 679 L 719 677 L 724 669 L 724 666 L 725 666 L 725 664 L 726 664 L 726 662 L 727 662 L 727 660 L 732 652 L 732 649 L 733 649 L 733 647 L 734 647 L 734 645 L 739 637 L 739 634 L 740 634 L 740 632 L 745 624 L 745 621 L 746 621 L 746 619 L 747 619 L 747 617 L 752 609 L 752 606 L 753 606 L 753 604 L 754 604 L 754 602 L 755 602 L 755 600 L 760 592 L 760 589 L 761 589 L 761 587 L 762 587 L 762 585 L 767 577 L 767 574 L 768 574 L 768 572 L 769 572 L 769 570 L 770 570 L 770 568 L 775 560 L 775 557 L 776 557 L 776 555 L 781 547 L 781 544 L 785 538 L 785 535 L 787 533 L 787 530 L 788 530 L 790 522 L 791 522 L 795 503 L 797 501 L 800 501 L 800 500 L 809 503 L 816 510 L 816 512 L 820 518 L 820 521 L 821 521 L 821 526 L 822 526 L 821 553 L 820 553 L 817 575 L 816 575 L 816 579 L 815 579 L 814 589 L 813 589 L 812 598 L 811 598 L 811 602 L 810 602 L 809 612 L 808 612 L 808 616 L 807 616 L 807 621 L 806 621 L 806 626 L 805 626 L 805 631 L 804 631 L 804 635 L 803 635 L 803 640 L 802 640 L 802 645 L 801 645 L 801 650 L 800 650 L 800 655 L 799 655 L 799 660 L 798 660 L 798 666 L 797 666 L 797 671 L 796 671 L 796 676 L 795 676 L 795 682 L 794 682 L 794 688 L 793 688 L 793 694 L 792 694 L 792 700 L 791 700 L 791 707 L 790 707 L 789 722 L 788 722 L 787 740 L 786 740 L 785 762 L 784 762 L 784 768 L 785 768 L 786 759 L 787 759 L 787 755 L 789 752 L 789 747 L 790 747 L 790 743 L 791 743 L 791 739 L 792 739 L 792 735 L 793 735 L 799 707 L 801 704 L 804 688 L 806 685 L 809 669 L 811 666 L 812 658 L 814 655 L 814 651 L 815 651 L 817 640 L 818 640 L 818 637 L 820 634 L 822 623 L 823 623 L 823 620 L 825 617 L 825 613 L 826 613 L 826 610 L 828 607 L 828 603 L 829 603 L 829 600 L 830 600 L 830 597 L 831 597 L 831 594 L 832 594 L 832 591 L 834 588 L 834 584 L 836 582 L 837 575 L 839 573 L 842 561 L 844 559 L 844 556 L 845 556 L 846 550 L 848 548 L 849 542 L 851 540 L 851 537 L 853 535 L 853 532 L 856 528 L 856 525 L 859 521 L 859 518 L 862 514 L 862 511 L 863 511 L 863 509 L 864 509 L 879 477 L 881 476 L 881 474 L 884 471 L 885 467 L 887 466 L 888 462 L 890 461 L 890 459 L 892 458 L 892 456 L 894 455 L 896 450 L 899 448 L 901 443 L 905 440 L 905 438 L 909 435 L 909 433 L 915 428 L 915 426 L 927 414 L 929 414 L 933 409 L 935 409 L 938 405 L 940 405 L 941 403 L 943 403 L 944 401 L 946 401 L 950 397 L 956 395 L 959 392 L 962 392 L 966 389 L 973 387 L 973 386 L 970 386 L 969 384 L 967 384 L 966 382 L 964 382 L 958 374 L 957 360 L 958 360 L 959 352 L 963 353 L 970 360 L 970 362 L 973 364 L 971 361 L 972 352 L 973 352 L 974 348 L 982 341 L 982 343 L 986 349 L 986 353 L 987 353 L 987 362 L 982 366 L 979 373 L 977 373 L 976 368 L 974 367 L 975 371 L 976 371 L 976 385 L 977 385 L 978 376 L 979 376 L 981 369 L 991 359 L 1000 355 L 1001 366 L 1000 366 L 999 374 L 996 377 L 996 379 L 986 386 L 975 388 L 961 402 L 959 402 L 957 404 L 957 406 L 944 419 L 944 421 L 941 423 L 941 425 L 938 427 L 936 432 L 933 434 L 933 436 L 931 437 L 931 439 L 929 440 L 929 442 L 927 443 L 927 445 L 923 449 L 922 453 L 920 454 L 919 458 L 917 459 L 916 463 L 914 464 L 912 470 L 910 471 L 910 473 L 909 473 L 903 487 L 901 488 L 899 495 L 898 495 L 898 497 L 897 497 L 897 499 L 896 499 L 896 501 L 891 509 L 891 512 L 886 520 L 886 523 L 883 527 L 883 530 L 880 534 L 880 537 L 877 541 L 877 544 L 875 546 L 875 549 L 872 553 L 869 564 L 868 564 L 867 569 L 865 571 L 865 574 L 863 576 L 862 582 L 861 582 L 859 590 L 857 592 L 855 601 L 853 603 L 848 621 L 846 623 L 846 626 L 845 626 L 845 629 L 844 629 L 844 632 L 843 632 L 843 635 L 842 635 L 842 638 L 841 638 L 841 641 L 840 641 L 840 644 L 839 644 L 839 647 L 838 647 L 838 650 L 836 653 L 836 657 L 835 657 L 835 660 L 834 660 L 834 663 L 833 663 L 833 666 L 832 666 L 832 669 L 830 672 L 830 676 L 829 676 L 829 679 L 828 679 L 828 682 L 826 685 L 826 689 L 825 689 L 825 692 L 824 692 L 824 695 L 823 695 L 823 698 L 821 701 L 821 705 L 819 708 L 819 712 L 818 712 L 818 715 L 816 718 L 815 726 L 814 726 L 811 740 L 809 743 L 809 747 L 807 750 L 806 758 L 805 758 L 804 765 L 802 768 L 802 772 L 801 772 L 800 780 L 798 783 L 798 787 L 797 787 L 797 791 L 796 791 L 796 795 L 795 795 L 789 823 L 785 828 L 776 828 L 776 827 L 768 824 L 767 822 L 765 822 L 759 816 L 759 814 L 756 812 L 756 810 L 751 802 L 751 799 L 749 796 L 749 791 L 748 791 L 748 786 L 747 786 L 747 777 L 746 777 L 747 739 L 748 739 L 748 730 L 749 730 L 749 721 L 750 721 L 752 700 L 753 700 L 753 694 L 754 694 L 754 689 L 755 689 L 755 683 L 756 683 L 756 678 L 757 678 L 760 657 L 761 657 L 761 653 L 762 653 L 762 648 L 763 648 L 763 644 L 764 644 L 765 634 L 766 634 L 767 625 L 768 625 L 768 621 L 769 621 L 769 617 L 770 617 L 771 607 L 772 607 L 772 603 L 773 603 L 773 598 L 774 598 L 774 593 L 775 593 L 779 573 L 778 573 L 777 578 L 776 578 L 776 580 L 775 580 L 775 582 L 770 590 L 770 593 L 769 593 L 769 595 L 768 595 L 768 597 L 763 605 L 763 608 L 762 608 L 762 610 L 759 614 L 759 617 L 754 625 L 754 628 L 749 636 L 749 639 L 746 643 L 746 646 L 741 654 L 741 657 L 738 661 L 738 664 L 734 670 L 734 673 L 730 679 L 730 682 L 726 688 L 726 691 L 725 691 L 723 698 L 718 706 L 718 709 L 714 715 L 714 718 L 709 726 L 709 729 L 705 735 L 705 738 L 704 738 L 704 740 L 703 740 L 703 742 L 698 750 L 698 753 L 697 753 L 689 771 L 687 772 L 687 774 L 683 778 L 677 779 L 677 778 L 672 777 L 664 768 L 662 760 L 661 760 L 661 756 L 660 756 L 659 734 L 660 734 L 661 716 L 662 716 L 662 711 L 663 711 L 663 706 L 664 706 L 664 701 L 665 701 L 668 685 L 670 682 L 672 671 L 673 671 L 673 668 L 674 668 L 674 665 L 675 665 L 682 641 L 684 639 L 688 624 L 689 624 L 691 616 L 693 614 L 693 612 L 692 612 L 692 614 L 683 623 L 681 623 L 679 626 L 675 627 L 672 630 L 669 630 L 669 631 L 666 631 L 663 633 L 659 633 L 659 634 L 652 634 L 652 635 L 636 635 L 636 636 L 642 636 L 642 637 L 649 639 L 657 649 L 657 653 L 655 653 L 655 654 L 643 654 L 643 653 L 638 652 L 633 647 L 631 640 L 630 640 L 630 636 L 627 636 L 627 637 L 620 637 L 620 638 L 616 638 L 616 639 L 607 641 L 607 642 L 597 646 L 596 648 L 592 649 L 586 655 L 584 655 L 574 665 L 574 667 L 570 670 L 570 672 L 566 675 L 566 677 L 561 682 L 560 686 L 558 687 L 558 689 L 556 690 L 552 699 L 550 700 L 546 710 L 544 711 L 540 721 L 538 722 L 532 736 L 530 737 L 529 741 L 527 742 L 526 746 L 524 747 L 523 751 L 521 752 L 520 756 L 518 757 L 518 759 L 516 760 L 516 762 L 514 763 L 514 765 L 512 766 L 512 768 L 510 769 L 508 774 L 505 776 L 505 778 L 502 780 L 502 782 L 498 785 L 498 787 L 492 792 L 492 794 L 482 804 L 480 804 L 476 809 L 474 809 L 472 812 L 468 813 L 467 815 L 465 815 L 461 818 L 455 819 L 455 820 L 441 821 L 441 820 L 436 820 L 436 819 L 429 817 L 421 810 L 421 808 L 419 807 L 419 805 L 416 801 L 415 794 L 414 794 L 413 771 L 414 771 L 416 752 L 417 752 L 418 744 L 419 744 L 424 726 L 426 724 L 426 721 L 427 721 L 427 718 L 430 714 L 430 711 L 434 705 L 434 702 L 435 702 L 450 670 L 452 669 L 452 667 L 453 667 L 456 659 L 458 658 L 461 650 L 463 649 L 468 638 L 470 637 L 471 633 L 473 632 L 474 628 L 476 627 L 477 623 L 479 622 L 480 618 L 482 617 L 484 611 L 486 610 L 487 606 L 489 605 L 492 597 L 494 596 L 494 594 L 495 594 L 495 592 L 496 592 L 496 590 L 497 590 L 497 588 L 502 580 L 502 577 L 504 575 L 504 572 L 506 570 L 506 566 L 508 563 L 508 557 L 504 557 L 504 558 L 496 561 L 495 563 L 493 563 L 492 565 L 487 567 L 484 571 L 482 571 L 476 578 L 474 578 L 461 591 L 461 593 L 452 601 L 452 603 L 446 608 L 446 610 L 441 614 L 441 616 L 438 618 L 438 620 L 434 623 L 434 625 L 431 627 L 431 629 L 425 635 L 425 637 L 423 638 L 423 640 L 421 641 L 421 643 L 419 644 L 419 646 L 417 647 L 417 649 L 415 650 L 415 652 L 411 656 L 410 660 L 406 664 L 402 673 L 400 674 L 400 676 L 399 676 L 398 680 L 396 681 L 394 687 L 392 688 L 389 696 L 387 697 L 380 713 L 378 714 L 376 721 L 375 721 L 375 723 L 374 723 L 374 725 L 373 725 L 373 727 L 372 727 L 372 729 L 371 729 L 371 731 L 366 739 L 366 742 L 365 742 L 365 744 L 360 752 L 358 760 L 357 760 L 355 767 L 353 769 L 352 776 L 349 779 L 340 779 L 340 778 L 336 777 L 335 775 L 333 775 L 326 767 L 325 759 L 324 759 Z M 348 949 L 353 946 L 355 939 L 357 937 L 357 934 L 359 932 L 359 929 L 361 927 L 361 924 L 363 922 L 363 919 L 365 917 L 365 914 L 367 912 L 367 909 L 369 907 L 369 904 L 372 903 L 374 906 L 374 909 L 377 913 L 377 916 L 379 918 L 379 921 L 382 925 L 382 928 L 384 930 L 386 938 L 388 940 L 389 946 L 391 948 L 393 948 L 393 950 L 379 950 L 380 948 L 383 947 L 383 945 L 381 943 L 381 940 L 379 938 L 378 933 L 360 933 L 359 939 L 358 939 L 357 944 L 356 944 L 356 948 L 358 948 L 359 950 L 358 951 L 357 950 L 350 950 L 349 951 Z M 362 928 L 362 931 L 376 931 L 376 928 L 375 928 L 375 925 L 373 923 L 370 912 L 368 913 L 368 916 L 367 916 L 366 921 L 365 921 L 363 928 Z M 445 903 L 447 903 L 447 904 L 458 903 L 458 905 L 455 906 L 455 948 L 472 948 L 476 944 L 477 939 L 479 939 L 478 950 L 460 950 L 460 951 L 459 950 L 446 950 L 445 951 L 445 948 L 448 948 L 448 906 L 446 906 Z M 458 475 L 459 476 L 462 473 L 462 471 L 469 465 L 469 463 L 476 457 L 476 455 L 482 450 L 482 448 L 489 442 L 489 440 L 494 436 L 494 434 L 500 429 L 500 427 L 505 423 L 505 421 L 515 411 L 515 409 L 519 406 L 519 404 L 523 401 L 523 399 L 527 396 L 527 394 L 535 386 L 535 384 L 538 382 L 538 380 L 541 378 L 541 376 L 544 374 L 544 372 L 547 370 L 547 368 L 550 366 L 550 364 L 553 362 L 553 360 L 555 359 L 557 354 L 560 352 L 560 350 L 562 349 L 562 347 L 564 346 L 564 344 L 568 340 L 569 336 L 571 335 L 572 331 L 574 330 L 575 326 L 577 325 L 577 323 L 578 323 L 578 321 L 579 321 L 579 319 L 584 311 L 587 300 L 588 300 L 588 296 L 589 296 L 589 292 L 590 292 L 590 273 L 589 273 L 589 270 L 587 268 L 579 268 L 579 269 L 573 271 L 562 281 L 562 283 L 557 287 L 557 289 L 551 295 L 551 297 L 549 298 L 549 300 L 544 305 L 544 307 L 540 311 L 539 315 L 535 319 L 534 323 L 530 327 L 530 329 L 527 332 L 525 338 L 523 339 L 521 345 L 519 346 L 518 350 L 516 351 L 512 361 L 510 362 L 506 372 L 504 373 L 504 375 L 503 375 L 503 377 L 502 377 L 502 379 L 501 379 L 501 381 L 500 381 L 500 383 L 499 383 L 499 385 L 498 385 L 498 387 L 497 387 L 497 389 L 496 389 L 496 391 L 495 391 L 495 393 L 494 393 L 494 395 L 493 395 L 493 397 L 492 397 L 492 399 L 491 399 L 491 401 L 490 401 L 490 403 L 489 403 L 489 405 L 484 413 L 484 416 L 483 416 L 483 418 L 482 418 L 482 420 L 477 428 L 477 431 L 474 435 L 474 438 L 469 446 L 469 449 L 467 451 L 467 454 L 465 456 L 465 459 L 463 461 L 463 464 L 461 466 L 461 469 L 460 469 L 460 472 Z M 527 903 L 552 903 L 552 904 L 559 903 L 560 904 L 560 915 L 558 914 L 558 911 L 554 906 L 551 906 L 551 905 L 549 905 L 549 906 L 537 906 L 537 925 L 548 925 L 551 923 L 551 919 L 553 919 L 553 933 L 551 932 L 551 929 L 549 927 L 537 927 L 537 947 L 538 948 L 554 948 L 558 945 L 559 940 L 561 938 L 562 939 L 561 940 L 561 950 L 550 950 L 550 951 L 529 950 L 529 951 L 527 951 L 527 948 L 530 948 L 530 906 L 528 906 Z M 609 903 L 623 903 L 623 905 L 620 906 L 620 908 L 621 908 L 624 916 L 626 917 L 627 921 L 629 922 L 630 926 L 633 925 L 636 917 L 638 916 L 639 912 L 642 909 L 642 906 L 640 905 L 640 903 L 643 903 L 643 904 L 649 903 L 649 905 L 644 908 L 642 914 L 640 915 L 639 919 L 637 920 L 636 924 L 634 925 L 634 927 L 632 929 L 632 947 L 635 948 L 635 951 L 634 950 L 622 950 L 623 948 L 626 947 L 626 930 L 625 930 L 623 924 L 621 923 L 619 917 L 617 916 L 615 910 L 613 909 L 612 906 L 609 905 Z M 735 903 L 737 903 L 737 904 L 749 903 L 749 905 L 746 906 L 746 910 L 747 910 L 747 914 L 749 916 L 756 940 L 758 938 L 762 924 L 763 924 L 765 916 L 767 914 L 764 906 L 762 906 L 761 903 L 775 903 L 775 905 L 772 906 L 772 910 L 773 910 L 774 916 L 776 918 L 778 927 L 780 929 L 781 935 L 783 937 L 783 940 L 785 938 L 785 935 L 786 935 L 788 927 L 790 925 L 793 913 L 794 913 L 795 908 L 796 908 L 792 904 L 793 903 L 802 903 L 802 905 L 798 907 L 797 913 L 796 913 L 795 918 L 793 920 L 793 923 L 792 923 L 792 926 L 791 926 L 791 929 L 790 929 L 790 932 L 789 932 L 789 935 L 787 937 L 787 940 L 786 940 L 786 943 L 785 943 L 783 950 L 782 951 L 780 950 L 779 945 L 777 943 L 777 940 L 775 938 L 774 932 L 772 930 L 769 918 L 767 918 L 767 921 L 766 921 L 766 924 L 764 926 L 763 932 L 761 934 L 758 946 L 756 948 L 756 951 L 754 951 L 752 948 L 749 936 L 747 934 L 745 925 L 743 923 L 739 908 L 738 908 L 738 906 L 735 905 Z M 840 949 L 845 947 L 846 942 L 848 940 L 848 937 L 850 935 L 850 932 L 852 930 L 852 927 L 854 925 L 854 922 L 856 920 L 856 917 L 858 915 L 858 912 L 860 910 L 860 907 L 861 907 L 862 903 L 864 903 L 866 906 L 866 909 L 869 913 L 869 916 L 871 918 L 871 921 L 873 923 L 873 926 L 875 928 L 875 931 L 877 933 L 877 936 L 879 938 L 879 941 L 881 943 L 881 946 L 883 948 L 885 948 L 885 951 L 884 950 L 871 951 L 871 949 L 874 948 L 875 946 L 874 946 L 874 943 L 873 943 L 872 938 L 870 936 L 870 933 L 853 933 L 851 936 L 850 942 L 848 944 L 848 948 L 850 948 L 851 951 L 849 951 L 849 950 L 842 950 L 841 951 Z M 854 928 L 854 931 L 868 931 L 868 928 L 867 928 L 866 922 L 864 920 L 864 917 L 862 915 L 862 912 L 860 913 L 859 919 L 858 919 L 856 926 Z M 927 904 L 928 903 L 930 903 L 930 904 L 941 903 L 941 905 L 938 906 L 938 948 L 955 948 L 958 945 L 959 940 L 961 939 L 961 950 L 944 950 L 944 951 L 940 951 L 940 950 L 929 950 L 928 951 L 927 950 L 928 948 L 931 947 L 931 906 L 929 906 Z M 999 903 L 1012 903 L 1012 905 L 1009 906 L 1009 947 L 1012 948 L 1012 950 L 999 950 L 1000 948 L 1003 947 L 1003 945 L 1002 945 L 1002 908 L 1003 907 L 1001 905 L 999 905 Z" fill-rule="evenodd" clip-rule="evenodd"/></g>
</svg>
